<mxfile host="app.diagrams.net" modified="2022-12-22T08:00:34.426Z" agent="5.0 (Windows NT 10.0; WOW64) AppleWebKit/537.36 (KHTML, like Gecko) Chrome/104.0.0.0 Safari/537.36" version="20.6.2" etag="pOn4ZgbkEVpHUfk5S0rD" type="github">
  <diagram id="A1iHUyjN-Eg-qFyRFhq0" name="第 1 页">
    <mxGraphModel dx="1020" dy="1258" grid="1" gridSize="10" guides="1" tooltips="1" connect="1" arrows="1" fold="1" page="1" pageScale="1" pageWidth="827" pageHeight="1169" math="0" shadow="0">
      <root>
        <mxCell id="0" />
        <mxCell id="1" parent="0" />
        <mxCell id="ol3PFoG4xY2esWFUMyw4-12" style="edgeStyle=orthogonalEdgeStyle;rounded=0;orthogonalLoop=1;jettySize=auto;html=1;entryX=0.5;entryY=0;entryDx=0;entryDy=0;" edge="1" parent="1" source="ol3PFoG4xY2esWFUMyw4-1" target="ol3PFoG4xY2esWFUMyw4-8">
          <mxGeometry relative="1" as="geometry" />
        </mxCell>
        <mxCell id="ol3PFoG4xY2esWFUMyw4-1" value="开始" style="rounded=1;whiteSpace=wrap;html=1;" vertex="1" parent="1">
          <mxGeometry x="345" y="100" width="120" height="60" as="geometry" />
        </mxCell>
        <mxCell id="ol3PFoG4xY2esWFUMyw4-2" value="管理后台" style="shape=umlActor;verticalLabelPosition=bottom;verticalAlign=top;html=1;outlineConnect=0;" vertex="1" parent="1">
          <mxGeometry x="95" width="30" height="60" as="geometry" />
        </mxCell>
        <mxCell id="ol3PFoG4xY2esWFUMyw4-3" value="申报人" style="shape=umlActor;verticalLabelPosition=bottom;verticalAlign=top;html=1;outlineConnect=0;" vertex="1" parent="1">
          <mxGeometry x="250" width="30" height="60" as="geometry" />
        </mxCell>
        <mxCell id="ol3PFoG4xY2esWFUMyw4-4" value="申报所在&lt;br&gt;注册单位" style="shape=umlActor;verticalLabelPosition=bottom;verticalAlign=top;html=1;outlineConnect=0;" vertex="1" parent="1">
          <mxGeometry x="390" width="30" height="60" as="geometry" />
        </mxCell>
        <mxCell id="ol3PFoG4xY2esWFUMyw4-5" value="审核单位" style="shape=umlActor;verticalLabelPosition=bottom;verticalAlign=top;html=1;outlineConnect=0;" vertex="1" parent="1">
          <mxGeometry x="540" width="30" height="60" as="geometry" />
        </mxCell>
        <mxCell id="ol3PFoG4xY2esWFUMyw4-6" value="评审委员会" style="shape=umlActor;verticalLabelPosition=bottom;verticalAlign=top;html=1;outlineConnect=0;" vertex="1" parent="1">
          <mxGeometry x="690" width="30" height="60" as="geometry" />
        </mxCell>
        <mxCell id="ol3PFoG4xY2esWFUMyw4-7" value="专家" style="shape=umlActor;verticalLabelPosition=bottom;verticalAlign=top;html=1;outlineConnect=0;" vertex="1" parent="1">
          <mxGeometry x="790" width="30" height="60" as="geometry" />
        </mxCell>
        <mxCell id="ol3PFoG4xY2esWFUMyw4-13" style="edgeStyle=orthogonalEdgeStyle;rounded=0;orthogonalLoop=1;jettySize=auto;html=1;entryX=0.5;entryY=0;entryDx=0;entryDy=0;" edge="1" parent="1" source="ol3PFoG4xY2esWFUMyw4-8" target="ol3PFoG4xY2esWFUMyw4-9">
          <mxGeometry relative="1" as="geometry" />
        </mxCell>
        <mxCell id="ol3PFoG4xY2esWFUMyw4-8" value="注册、登录" style="rounded=0;whiteSpace=wrap;html=1;" vertex="1" parent="1">
          <mxGeometry x="345" y="190" width="120" height="60" as="geometry" />
        </mxCell>
        <mxCell id="ol3PFoG4xY2esWFUMyw4-14" style="edgeStyle=orthogonalEdgeStyle;rounded=0;orthogonalLoop=1;jettySize=auto;html=1;entryX=0.25;entryY=0;entryDx=0;entryDy=0;" edge="1" parent="1" source="ol3PFoG4xY2esWFUMyw4-9" target="ol3PFoG4xY2esWFUMyw4-10">
          <mxGeometry relative="1" as="geometry">
            <Array as="points">
              <mxPoint x="405" y="360" />
              <mxPoint x="100" y="360" />
            </Array>
          </mxGeometry>
        </mxCell>
        <mxCell id="ol3PFoG4xY2esWFUMyw4-9" value="填写认证信息并提交" style="rounded=0;whiteSpace=wrap;html=1;" vertex="1" parent="1">
          <mxGeometry x="345" y="290" width="120" height="60" as="geometry" />
        </mxCell>
        <mxCell id="ol3PFoG4xY2esWFUMyw4-15" style="edgeStyle=orthogonalEdgeStyle;rounded=0;orthogonalLoop=1;jettySize=auto;html=1;" edge="1" parent="1" source="ol3PFoG4xY2esWFUMyw4-10" target="ol3PFoG4xY2esWFUMyw4-11">
          <mxGeometry relative="1" as="geometry">
            <Array as="points">
              <mxPoint x="130" y="460" />
              <mxPoint x="265" y="460" />
            </Array>
          </mxGeometry>
        </mxCell>
        <mxCell id="ol3PFoG4xY2esWFUMyw4-10" value="注册单位认证审核" style="rounded=0;whiteSpace=wrap;html=1;" vertex="1" parent="1">
          <mxGeometry x="70" y="380" width="120" height="60" as="geometry" />
        </mxCell>
        <mxCell id="ol3PFoG4xY2esWFUMyw4-11" value="非自由职业者可选择注册单位" style="rounded=0;whiteSpace=wrap;html=1;" vertex="1" parent="1">
          <mxGeometry x="205" y="470" width="120" height="60" as="geometry" />
        </mxCell>
        <mxCell id="ol3PFoG4xY2esWFUMyw4-22" style="edgeStyle=orthogonalEdgeStyle;rounded=0;orthogonalLoop=1;jettySize=auto;html=1;entryX=0;entryY=0.5;entryDx=0;entryDy=0;" edge="1" parent="1" source="ol3PFoG4xY2esWFUMyw4-16" target="ol3PFoG4xY2esWFUMyw4-17">
          <mxGeometry relative="1" as="geometry" />
        </mxCell>
        <mxCell id="ol3PFoG4xY2esWFUMyw4-16" value="添加审核单位账号" style="rounded=0;whiteSpace=wrap;html=1;" vertex="1" parent="1">
          <mxGeometry x="70" y="600" width="120" height="60" as="geometry" />
        </mxCell>
        <mxCell id="ol3PFoG4xY2esWFUMyw4-17" value="审核单位登录" style="rounded=0;whiteSpace=wrap;html=1;" vertex="1" parent="1">
          <mxGeometry x="495" y="600" width="120" height="60" as="geometry" />
        </mxCell>
        <mxCell id="ol3PFoG4xY2esWFUMyw4-23" style="edgeStyle=orthogonalEdgeStyle;rounded=0;orthogonalLoop=1;jettySize=auto;html=1;entryX=0;entryY=0.5;entryDx=0;entryDy=0;" edge="1" parent="1" source="ol3PFoG4xY2esWFUMyw4-18" target="ol3PFoG4xY2esWFUMyw4-19">
          <mxGeometry relative="1" as="geometry" />
        </mxCell>
        <mxCell id="ol3PFoG4xY2esWFUMyw4-18" value="添加评审委员会账号" style="rounded=0;whiteSpace=wrap;html=1;" vertex="1" parent="1">
          <mxGeometry x="70" y="700" width="120" height="60" as="geometry" />
        </mxCell>
        <mxCell id="ol3PFoG4xY2esWFUMyw4-19" value="评审委员会登录" style="rounded=0;whiteSpace=wrap;html=1;" vertex="1" parent="1">
          <mxGeometry x="630" y="700" width="120" height="60" as="geometry" />
        </mxCell>
        <mxCell id="ol3PFoG4xY2esWFUMyw4-24" style="edgeStyle=orthogonalEdgeStyle;rounded=0;orthogonalLoop=1;jettySize=auto;html=1;" edge="1" parent="1" source="ol3PFoG4xY2esWFUMyw4-20" target="ol3PFoG4xY2esWFUMyw4-21">
          <mxGeometry relative="1" as="geometry">
            <mxPoint x="610" y="830" as="targetPoint" />
          </mxGeometry>
        </mxCell>
        <mxCell id="ol3PFoG4xY2esWFUMyw4-26" style="edgeStyle=orthogonalEdgeStyle;rounded=0;orthogonalLoop=1;jettySize=auto;html=1;entryX=0.5;entryY=0;entryDx=0;entryDy=0;" edge="1" parent="1" source="ol3PFoG4xY2esWFUMyw4-20" target="ol3PFoG4xY2esWFUMyw4-25">
          <mxGeometry relative="1" as="geometry" />
        </mxCell>
        <mxCell id="ol3PFoG4xY2esWFUMyw4-20" value="添加专家账号" style="rounded=0;whiteSpace=wrap;html=1;" vertex="1" parent="1">
          <mxGeometry x="70" y="800" width="120" height="60" as="geometry" />
        </mxCell>
        <mxCell id="ol3PFoG4xY2esWFUMyw4-21" value="评审委员会登录" style="rounded=0;whiteSpace=wrap;html=1;" vertex="1" parent="1">
          <mxGeometry x="760" y="800" width="120" height="60" as="geometry" />
        </mxCell>
        <mxCell id="ol3PFoG4xY2esWFUMyw4-28" style="edgeStyle=orthogonalEdgeStyle;rounded=0;orthogonalLoop=1;jettySize=auto;html=1;entryX=0;entryY=0.5;entryDx=0;entryDy=0;" edge="1" parent="1" source="ol3PFoG4xY2esWFUMyw4-25" target="ol3PFoG4xY2esWFUMyw4-27">
          <mxGeometry relative="1" as="geometry" />
        </mxCell>
        <mxCell id="ol3PFoG4xY2esWFUMyw4-25" value="配置专家组、抽取专家" style="rounded=0;whiteSpace=wrap;html=1;" vertex="1" parent="1">
          <mxGeometry x="70" y="890" width="120" height="60" as="geometry" />
        </mxCell>
        <mxCell id="ol3PFoG4xY2esWFUMyw4-27" value="初定专家评审" style="rounded=0;whiteSpace=wrap;html=1;" vertex="1" parent="1">
          <mxGeometry x="760" y="890" width="120" height="60" as="geometry" />
        </mxCell>
        <mxCell id="ol3PFoG4xY2esWFUMyw4-29" value="配置管理员、门户信息" style="rounded=0;whiteSpace=wrap;html=1;" vertex="1" parent="1">
          <mxGeometry x="70" y="1000" width="120" height="60" as="geometry" />
        </mxCell>
      </root>
    </mxGraphModel>
  </diagram>
</mxfile>
